<mxfile host="app.diagrams.net" agent="Mozilla/5.0 (Windows NT 10.0; Win64; x64) AppleWebKit/537.36 (KHTML, like Gecko) Chrome/135.0.0.0 Safari/537.36 Edg/135.0.0.0" version="26.2.13">
  <diagram name="用户交互流程" id="Oo8SjVRXIeCE_idvQn2g">
    <mxGraphModel dx="1115" dy="878" grid="1" gridSize="10" guides="1" tooltips="1" connect="1" arrows="1" fold="1" page="1" pageScale="1" pageWidth="827" pageHeight="1169" math="0" shadow="0">
      <root>
        <mxCell id="0" />
        <mxCell id="1" parent="0" />
        <mxCell id="EHSvnzg41kGsp4ja_c1O-1" value="用户交互流程" style="text;html=1;strokeColor=none;fillColor=none;align=center;verticalAlign=middle;whiteSpace=wrap;rounded=0;fontSize=16;fontStyle=1" vertex="1" parent="1">
          <mxGeometry x="294" y="80" width="240" height="30" as="geometry" />
        </mxCell>
        <mxCell id="EHSvnzg41kGsp4ja_c1O-2" value="用户" style="shape=umlActor;verticalLabelPosition=bottom;verticalAlign=top;html=1;outlineConnect=0;fillColor=#dae8fc;strokeColor=#6c8ebf;" vertex="1" parent="1">
          <mxGeometry x="90" y="180" width="30" height="60" as="geometry" />
        </mxCell>
        <mxCell id="EHSvnzg41kGsp4ja_c1O-3" value="" style="rounded=1;whiteSpace=wrap;html=1;fillColor=#f5f5f5;strokeColor=#666666;fontColor=#333333;dashed=1;" vertex="1" parent="1">
          <mxGeometry x="170" y="120" width="610" height="410" as="geometry" />
        </mxCell>
        <mxCell id="EHSvnzg41kGsp4ja_c1O-4" value="个性化检索系统" style="text;html=1;strokeColor=none;fillColor=none;align=center;verticalAlign=middle;whiteSpace=wrap;rounded=0;fontSize=14;fontStyle=1" vertex="1" parent="1">
          <mxGeometry x="400" y="120" width="120" height="30" as="geometry" />
        </mxCell>
        <mxCell id="EHSvnzg41kGsp4ja_c1O-5" value="用户认证" style="rounded=1;whiteSpace=wrap;html=1;fillColor=#d5e8d4;strokeColor=#82b366;fontStyle=1" vertex="1" parent="1">
          <mxGeometry x="220" y="170" width="120" height="60" as="geometry" />
        </mxCell>
        <mxCell id="EHSvnzg41kGsp4ja_c1O-6" value="登录" style="rounded=0;whiteSpace=wrap;html=1;fillColor=#dae8fc;strokeColor=#6c8ebf;" vertex="1" parent="1">
          <mxGeometry x="200" y="260" width="70" height="30" as="geometry" />
        </mxCell>
        <mxCell id="EHSvnzg41kGsp4ja_c1O-7" value="注册" style="rounded=0;whiteSpace=wrap;html=1;fillColor=#dae8fc;strokeColor=#6c8ebf;" vertex="1" parent="1">
          <mxGeometry x="290" y="260" width="70" height="30" as="geometry" />
        </mxCell>
        <mxCell id="EHSvnzg41kGsp4ja_c1O-8" value="查询输入" style="rounded=1;whiteSpace=wrap;html=1;fillColor=#ffe6cc;strokeColor=#d79b00;fontStyle=1" vertex="1" parent="1">
          <mxGeometry x="400" y="170" width="120" height="60" as="geometry" />
        </mxCell>
        <mxCell id="EHSvnzg41kGsp4ja_c1O-9" value="关键词输入" style="rounded=0;whiteSpace=wrap;html=1;fillColor=#fff2cc;strokeColor=#d6b656;" vertex="1" parent="1">
          <mxGeometry x="370" y="260" width="90" height="30" as="geometry" />
        </mxCell>
        <mxCell id="EHSvnzg41kGsp4ja_c1O-10" value="类别筛选" style="rounded=0;whiteSpace=wrap;html=1;fillColor=#fff2cc;strokeColor=#d6b656;" vertex="1" parent="1">
          <mxGeometry x="470" y="260" width="80" height="30" as="geometry" />
        </mxCell>
        <mxCell id="EHSvnzg41kGsp4ja_c1O-11" value="结果浏览" style="rounded=1;whiteSpace=wrap;html=1;fillColor=#e1d5e7;strokeColor=#9673a6;fontStyle=1" vertex="1" parent="1">
          <mxGeometry x="590" y="170" width="120" height="60" as="geometry" />
        </mxCell>
        <mxCell id="EHSvnzg41kGsp4ja_c1O-12" value="RAG增强回答" style="rounded=0;whiteSpace=wrap;html=1;fillColor=#e1d5e7;strokeColor=#9673a6;" vertex="1" parent="1">
          <mxGeometry x="560" y="260" width="100" height="30" as="geometry" />
        </mxCell>
        <mxCell id="EHSvnzg41kGsp4ja_c1O-13" value="文档结果" style="rounded=0;whiteSpace=wrap;html=1;fillColor=#e1d5e7;strokeColor=#9673a6;" vertex="1" parent="1">
          <mxGeometry x="670" y="260" width="80" height="30" as="geometry" />
        </mxCell>
        <mxCell id="EHSvnzg41kGsp4ja_c1O-14" value="文档查看" style="rounded=1;whiteSpace=wrap;html=1;fillColor=#dae8fc;strokeColor=#6c8ebf;fontStyle=1" vertex="1" parent="1">
          <mxGeometry x="400" y="310" width="120" height="60" as="geometry" />
        </mxCell>
        <mxCell id="EHSvnzg41kGsp4ja_c1O-15" value="反馈收集" style="rounded=1;whiteSpace=wrap;html=1;fillColor=#f8cecc;strokeColor=#b85450;fontStyle=1" vertex="1" parent="1">
          <mxGeometry x="400" y="390" width="120" height="60" as="geometry" />
        </mxCell>
        <mxCell id="EHSvnzg41kGsp4ja_c1O-16" value="显式反馈&#xa;(收藏)" style="rounded=0;whiteSpace=wrap;html=1;fillColor=#f8cecc;strokeColor=#b85450;" vertex="1" parent="1">
          <mxGeometry x="370" y="475" width="90" height="40" as="geometry" />
        </mxCell>
        <mxCell id="EHSvnzg41kGsp4ja_c1O-17" value="隐式反馈&#xa;(点击、查询)" style="rounded=0;whiteSpace=wrap;html=1;fillColor=#f8cecc;strokeColor=#b85450;" vertex="1" parent="1">
          <mxGeometry x="470" y="475" width="90" height="40" as="geometry" />
        </mxCell>
        <mxCell id="EHSvnzg41kGsp4ja_c1O-18" value="用户资料" style="rounded=1;whiteSpace=wrap;html=1;fillColor=#d5e8d4;strokeColor=#82b366;fontStyle=1" vertex="1" parent="1">
          <mxGeometry x="220" y="390" width="120" height="60" as="geometry" />
        </mxCell>
        <mxCell id="EHSvnzg41kGsp4ja_c1O-19" value="搜索历史" style="rounded=0;whiteSpace=wrap;html=1;fillColor=#d5e8d4;strokeColor=#82b366;" vertex="1" parent="1">
          <mxGeometry x="200" y="480" width="70" height="30" as="geometry" />
        </mxCell>
        <mxCell id="EHSvnzg41kGsp4ja_c1O-20" value="收藏列表" style="rounded=0;whiteSpace=wrap;html=1;fillColor=#d5e8d4;strokeColor=#82b366;" vertex="1" parent="1">
          <mxGeometry x="290" y="480" width="70" height="30" as="geometry" />
        </mxCell>
        <mxCell id="EHSvnzg41kGsp4ja_c1O-21" value="个性化排序" style="rounded=1;whiteSpace=wrap;html=1;fillColor=#fff2cc;strokeColor=#d6b656;fontStyle=1" vertex="1" parent="1">
          <mxGeometry x="580" y="390" width="120" height="60" as="geometry" />
        </mxCell>
        <mxCell id="EHSvnzg41kGsp4ja_c1O-22" value="" style="endArrow=classic;html=1;rounded=0;exitX=1;exitY=0.3333333333333333;exitDx=0;exitDy=0;exitPerimeter=0;entryX=0;entryY=0.5;entryDx=0;entryDy=0;" edge="1" parent="1" source="EHSvnzg41kGsp4ja_c1O-2" target="EHSvnzg41kGsp4ja_c1O-5">
          <mxGeometry width="50" height="50" relative="1" as="geometry">
            <mxPoint x="410" y="470" as="sourcePoint" />
            <mxPoint x="460" y="420" as="targetPoint" />
          </mxGeometry>
        </mxCell>
        <mxCell id="EHSvnzg41kGsp4ja_c1O-23" value="" style="endArrow=classic;html=1;rounded=0;exitX=1;exitY=0.5;exitDx=0;exitDy=0;entryX=0;entryY=0.5;entryDx=0;entryDy=0;" edge="1" parent="1" source="EHSvnzg41kGsp4ja_c1O-5" target="EHSvnzg41kGsp4ja_c1O-8">
          <mxGeometry width="50" height="50" relative="1" as="geometry">
            <mxPoint x="410" y="470" as="sourcePoint" />
            <mxPoint x="460" y="420" as="targetPoint" />
          </mxGeometry>
        </mxCell>
        <mxCell id="EHSvnzg41kGsp4ja_c1O-24" value="" style="endArrow=classic;html=1;rounded=0;exitX=0.5;exitY=1;exitDx=0;exitDy=0;entryX=0.5;entryY=0;entryDx=0;entryDy=0;" edge="1" parent="1" source="EHSvnzg41kGsp4ja_c1O-5" target="EHSvnzg41kGsp4ja_c1O-6">
          <mxGeometry width="50" height="50" relative="1" as="geometry">
            <mxPoint x="410" y="470" as="sourcePoint" />
            <mxPoint x="460" y="420" as="targetPoint" />
          </mxGeometry>
        </mxCell>
        <mxCell id="EHSvnzg41kGsp4ja_c1O-25" value="" style="endArrow=classic;html=1;rounded=0;exitX=0.5;exitY=1;exitDx=0;exitDy=0;entryX=0.5;entryY=0;entryDx=0;entryDy=0;" edge="1" parent="1" source="EHSvnzg41kGsp4ja_c1O-5" target="EHSvnzg41kGsp4ja_c1O-7">
          <mxGeometry width="50" height="50" relative="1" as="geometry">
            <mxPoint x="410" y="470" as="sourcePoint" />
            <mxPoint x="460" y="420" as="targetPoint" />
          </mxGeometry>
        </mxCell>
        <mxCell id="EHSvnzg41kGsp4ja_c1O-26" value="" style="endArrow=classic;html=1;rounded=0;exitX=0.5;exitY=1;exitDx=0;exitDy=0;entryX=0.5;entryY=0;entryDx=0;entryDy=0;" edge="1" parent="1" source="EHSvnzg41kGsp4ja_c1O-8" target="EHSvnzg41kGsp4ja_c1O-9">
          <mxGeometry width="50" height="50" relative="1" as="geometry">
            <mxPoint x="410" y="470" as="sourcePoint" />
            <mxPoint x="460" y="420" as="targetPoint" />
          </mxGeometry>
        </mxCell>
        <mxCell id="EHSvnzg41kGsp4ja_c1O-27" value="" style="endArrow=classic;html=1;rounded=0;exitX=0.5;exitY=1;exitDx=0;exitDy=0;entryX=0.5;entryY=0;entryDx=0;entryDy=0;" edge="1" parent="1" source="EHSvnzg41kGsp4ja_c1O-8" target="EHSvnzg41kGsp4ja_c1O-10">
          <mxGeometry width="50" height="50" relative="1" as="geometry">
            <mxPoint x="410" y="470" as="sourcePoint" />
            <mxPoint x="460" y="420" as="targetPoint" />
          </mxGeometry>
        </mxCell>
        <mxCell id="EHSvnzg41kGsp4ja_c1O-28" value="" style="endArrow=classic;html=1;rounded=0;exitX=1;exitY=0.5;exitDx=0;exitDy=0;entryX=0;entryY=0.5;entryDx=0;entryDy=0;" edge="1" parent="1" source="EHSvnzg41kGsp4ja_c1O-8" target="EHSvnzg41kGsp4ja_c1O-11">
          <mxGeometry width="50" height="50" relative="1" as="geometry">
            <mxPoint x="410" y="470" as="sourcePoint" />
            <mxPoint x="460" y="420" as="targetPoint" />
          </mxGeometry>
        </mxCell>
        <mxCell id="EHSvnzg41kGsp4ja_c1O-29" value="" style="endArrow=classic;html=1;rounded=0;exitX=0.5;exitY=1;exitDx=0;exitDy=0;entryX=0.5;entryY=0;entryDx=0;entryDy=0;" edge="1" parent="1" source="EHSvnzg41kGsp4ja_c1O-11" target="EHSvnzg41kGsp4ja_c1O-12">
          <mxGeometry width="50" height="50" relative="1" as="geometry">
            <mxPoint x="410" y="470" as="sourcePoint" />
            <mxPoint x="460" y="420" as="targetPoint" />
          </mxGeometry>
        </mxCell>
        <mxCell id="EHSvnzg41kGsp4ja_c1O-30" value="" style="endArrow=classic;html=1;rounded=0;exitX=0.5;exitY=1;exitDx=0;exitDy=0;entryX=0.5;entryY=0;entryDx=0;entryDy=0;" edge="1" parent="1" source="EHSvnzg41kGsp4ja_c1O-11" target="EHSvnzg41kGsp4ja_c1O-13">
          <mxGeometry width="50" height="50" relative="1" as="geometry">
            <mxPoint x="410" y="470" as="sourcePoint" />
            <mxPoint x="460" y="420" as="targetPoint" />
          </mxGeometry>
        </mxCell>
        <mxCell id="EHSvnzg41kGsp4ja_c1O-31" value="" style="endArrow=classic;html=1;rounded=0;exitX=0.5;exitY=1;exitDx=0;exitDy=0;entryX=1;entryY=0.5;entryDx=0;entryDy=0;" edge="1" parent="1" source="EHSvnzg41kGsp4ja_c1O-13" target="EHSvnzg41kGsp4ja_c1O-14">
          <mxGeometry width="50" height="50" relative="1" as="geometry">
            <mxPoint x="410" y="470" as="sourcePoint" />
            <mxPoint x="460" y="420" as="targetPoint" />
            <Array as="points">
              <mxPoint x="710" y="310" />
              <mxPoint x="710" y="340" />
            </Array>
          </mxGeometry>
        </mxCell>
        <mxCell id="EHSvnzg41kGsp4ja_c1O-32" value="" style="endArrow=classic;html=1;rounded=0;exitX=0.5;exitY=1;exitDx=0;exitDy=0;entryX=0.5;entryY=0;entryDx=0;entryDy=0;" edge="1" parent="1" source="EHSvnzg41kGsp4ja_c1O-14" target="EHSvnzg41kGsp4ja_c1O-15">
          <mxGeometry width="50" height="50" relative="1" as="geometry">
            <mxPoint x="410" y="440" as="sourcePoint" />
            <mxPoint x="460" y="390" as="targetPoint" />
          </mxGeometry>
        </mxCell>
        <mxCell id="EHSvnzg41kGsp4ja_c1O-33" value="" style="endArrow=classic;html=1;rounded=0;exitX=0.5;exitY=1;exitDx=0;exitDy=0;entryX=0.5;entryY=0;entryDx=0;entryDy=0;" edge="1" parent="1" source="EHSvnzg41kGsp4ja_c1O-15" target="EHSvnzg41kGsp4ja_c1O-16">
          <mxGeometry width="50" height="50" relative="1" as="geometry">
            <mxPoint x="410" y="400" as="sourcePoint" />
            <mxPoint x="460" y="350" as="targetPoint" />
          </mxGeometry>
        </mxCell>
        <mxCell id="EHSvnzg41kGsp4ja_c1O-34" value="" style="endArrow=classic;html=1;rounded=0;exitX=0.5;exitY=1;exitDx=0;exitDy=0;entryX=0.5;entryY=0;entryDx=0;entryDy=0;" edge="1" parent="1" source="EHSvnzg41kGsp4ja_c1O-15" target="EHSvnzg41kGsp4ja_c1O-17">
          <mxGeometry width="50" height="50" relative="1" as="geometry">
            <mxPoint x="410" y="400" as="sourcePoint" />
            <mxPoint x="460" y="350" as="targetPoint" />
          </mxGeometry>
        </mxCell>
        <mxCell id="EHSvnzg41kGsp4ja_c1O-35" value="" style="endArrow=classic;html=1;rounded=0;exitX=1;exitY=0.5;exitDx=0;exitDy=0;entryX=0;entryY=0.5;entryDx=0;entryDy=0;" edge="1" parent="1" source="EHSvnzg41kGsp4ja_c1O-15" target="EHSvnzg41kGsp4ja_c1O-21">
          <mxGeometry width="50" height="50" relative="1" as="geometry">
            <mxPoint x="410" y="400" as="sourcePoint" />
            <mxPoint x="460" y="350" as="targetPoint" />
          </mxGeometry>
        </mxCell>
        <mxCell id="EHSvnzg41kGsp4ja_c1O-36" value="" style="endArrow=classic;html=1;rounded=0;exitX=0;exitY=0.5;exitDx=0;exitDy=0;entryX=1;entryY=0.5;entryDx=0;entryDy=0;" edge="1" parent="1">
          <mxGeometry width="50" height="50" relative="1" as="geometry">
            <mxPoint x="400" y="419.5" as="sourcePoint" />
            <mxPoint x="340" y="419.5" as="targetPoint" />
          </mxGeometry>
        </mxCell>
        <mxCell id="EHSvnzg41kGsp4ja_c1O-37" value="" style="endArrow=classic;html=1;rounded=0;exitX=0.5;exitY=1;exitDx=0;exitDy=0;entryX=0.5;entryY=0;entryDx=0;entryDy=0;" edge="1" parent="1" source="EHSvnzg41kGsp4ja_c1O-18" target="EHSvnzg41kGsp4ja_c1O-19">
          <mxGeometry width="50" height="50" relative="1" as="geometry">
            <mxPoint x="410" y="400" as="sourcePoint" />
            <mxPoint x="460" y="350" as="targetPoint" />
          </mxGeometry>
        </mxCell>
        <mxCell id="EHSvnzg41kGsp4ja_c1O-38" value="" style="endArrow=classic;html=1;rounded=0;exitX=0.5;exitY=1;exitDx=0;exitDy=0;entryX=0.5;entryY=0;entryDx=0;entryDy=0;" edge="1" parent="1" source="EHSvnzg41kGsp4ja_c1O-18" target="EHSvnzg41kGsp4ja_c1O-20">
          <mxGeometry width="50" height="50" relative="1" as="geometry">
            <mxPoint x="410" y="400" as="sourcePoint" />
            <mxPoint x="460" y="350" as="targetPoint" />
          </mxGeometry>
        </mxCell>
        <mxCell id="EHSvnzg41kGsp4ja_c1O-39" value="" style="endArrow=classic;html=1;rounded=0;exitX=1;exitY=0.5;exitDx=0;exitDy=0;entryX=0.5;entryY=0;entryDx=0;entryDy=0;" edge="1" parent="1" source="EHSvnzg41kGsp4ja_c1O-21" target="EHSvnzg41kGsp4ja_c1O-8">
          <mxGeometry width="50" height="50" relative="1" as="geometry">
            <mxPoint x="410" y="470" as="sourcePoint" />
            <mxPoint x="460" y="420" as="targetPoint" />
            <Array as="points">
              <mxPoint x="760" y="420" />
              <mxPoint x="760" y="150" />
              <mxPoint x="460" y="150" />
            </Array>
          </mxGeometry>
        </mxCell>
        <mxCell id="EHSvnzg41kGsp4ja_c1O-40" value="图例" style="swimlane;fontStyle=1;childLayout=stackLayout;horizontal=1;startSize=30;horizontalStack=0;resizeParent=1;resizeParentMax=0;resizeLast=0;collapsible=1;marginBottom=0;whiteSpace=wrap;html=1;fillColor=#f5f5f5;strokeColor=#666666;fontColor=#333333;" vertex="1" parent="1">
          <mxGeometry x="70" y="435" width="87.5" height="120" as="geometry" />
        </mxCell>
        <mxCell id="EHSvnzg41kGsp4ja_c1O-41" value="主要流程" style="text;strokeColor=#82b366;fillColor=#d5e8d4;align=left;verticalAlign=middle;spacingLeft=4;spacingRight=4;overflow=hidden;points=[[0,0.5],[1,0.5]];portConstraint=eastwest;rotatable=0;whiteSpace=wrap;html=1;" vertex="1" parent="EHSvnzg41kGsp4ja_c1O-40">
          <mxGeometry y="30" width="87.5" height="30" as="geometry" />
        </mxCell>
        <mxCell id="EHSvnzg41kGsp4ja_c1O-42" value="用户输入" style="text;strokeColor=#d79b00;fillColor=#ffe6cc;align=left;verticalAlign=middle;spacingLeft=4;spacingRight=4;overflow=hidden;points=[[0,0.5],[1,0.5]];portConstraint=eastwest;rotatable=0;whiteSpace=wrap;html=1;" vertex="1" parent="EHSvnzg41kGsp4ja_c1O-40">
          <mxGeometry y="60" width="87.5" height="30" as="geometry" />
        </mxCell>
        <mxCell id="EHSvnzg41kGsp4ja_c1O-43" value="系统反馈" style="text;strokeColor=#b85450;fillColor=#f8cecc;align=left;verticalAlign=middle;spacingLeft=4;spacingRight=4;overflow=hidden;points=[[0,0.5],[1,0.5]];portConstraint=eastwest;rotatable=0;whiteSpace=wrap;html=1;" vertex="1" parent="EHSvnzg41kGsp4ja_c1O-40">
          <mxGeometry y="90" width="87.5" height="30" as="geometry" />
        </mxCell>
        <mxCell id="EHSvnzg41kGsp4ja_c1O-44" value="注：本图展示了个性化检索系统的用户交互流程，包括用户认证、查询输入、结果浏览、文档查看、反馈收集和用户资料管理等主要环节，以及它们之间的交互关系。" style="text;html=1;strokeColor=none;fillColor=none;align=left;verticalAlign=middle;whiteSpace=wrap;rounded=0;fontSize=10;fontStyle=2" vertex="1" parent="1">
          <mxGeometry x="195" y="540" width="560" height="30" as="geometry" />
        </mxCell>
      </root>
    </mxGraphModel>
  </diagram>
</mxfile>
